<svg xmlns="http://www.w3.org/2000/svg" width="487" height="233" viewBox="0 0 128.85208 61.647915"><path style="line-height:normal;font-variant-ligatures:normal;font-variant-position:normal;font-variant-caps:normal;font-variant-numeric:normal;font-variant-alternates:normal;font-feature-settings:normal;text-indent:0;text-align:start;text-decoration-line:none;text-decoration-style:solid;text-decoration-color:#000;text-transform:none;text-orientation:mixed;shape-padding:0;isolation:auto;mix-blend-mode:normal" d="M98.027 0c-16.97 0-30.822 13.854-30.822 30.824 0 16.97 13.852 30.824 30.822 30.824s30.825-13.853 30.825-30.824C128.852 13.854 114.998 0 98.027 0zm0 8.996a21.76 21.76 0 0 1 21.828 21.828 21.76 21.76 0 0 1-21.828 21.828A21.76 21.76 0 0 1 76.2 30.824 21.76 21.76 0 0 1 98.027 8.996z" color="#000" font-weight="400" font-family="sans-serif" white-space="normal" overflow="visible" fill="#2f4538"/><path d="M61.648 20.77a4.498 4.498 0 0 1-4.498 4.498 4.498 4.498 0 0 1-4.498-4.498 4.498 4.498 0 0 1 4.498-4.498 4.498 4.498 0 0 1 4.498 4.498z" fill="#2f4538"/><path style="line-height:normal;font-variant-ligatures:normal;font-variant-position:normal;font-variant-caps:normal;font-variant-numeric:normal;font-variant-alternates:normal;font-feature-settings:normal;text-indent:0;text-align:start;text-decoration-line:none;text-decoration-style:solid;text-decoration-color:#000;text-transform:none;text-orientation:mixed;shape-padding:0;isolation:auto;mix-blend-mode:normal" d="M30.824 0C18.572-.163 6.802 7.832 2.285 19.195-2.343 30.13.226 43.59 8.531 52.071c7.994 8.6 21.11 11.857 32.188 7.943a30.956 30.956 0 0 0 11.933-7.466v9.1h8.996V30.824H30.824v8.996H50.73c-3.712 8.61-13.424 14.002-22.696 12.658-9.814-1.055-18.12-9.576-18.926-19.413-1.17-9.66 4.983-19.572 14.19-22.75 5.988-2.203 12.932-1.626 18.45 1.589l4.48-7.759A30.625 30.625 0 0 0 30.823 0z" color="#000" font-weight="400" font-family="sans-serif" white-space="normal" overflow="visible" fill="#2f4538"/></svg>